<?xml version="1.0" encoding="utf-8"?>
<!-- Generator: Adobe Illustrator 23.0.3, SVG Export Plug-In . SVG Version: 6.00 Build 0)  -->
<svg version="1.1" id="Layer_1" xmlns="http://www.w3.org/2000/svg" xmlns:xlink="http://www.w3.org/1999/xlink" x="0px" y="0px"
	 viewBox="0 0 497.6 249.8" style="enable-background:new 0 0 497.6 249.8;" xml:space="preserve">
<path d="M201,139.6c-0.7-14.1-1.5-27.7-2-41.3c-0.1-3.8-1.3-5.2-5.3-5.1c-12.1,0.3-24.3-0.4-36.4,0.4c-5.7,0.4-12,2.1-16.7,5.3
	c-27.1,18.2-29.4,58-5.1,79.6c6.3,5.6,13.5,8.9,22.2,8.7c11.8-0.2,23.6-0.2,35.5,0c3.8,0.1,5.3-1.2,5.5-5.1
	C199.3,167.8,200.2,153.5,201,139.6L201,139.6z M346.5,85.1c0.1,0.7,0.1,2.2,0.4,3.7c8.6,36.5,17.1,73,26.1,109.3
	c1,4.1,4.4,8.3,7.9,10.9c6.3,4.7,13.6,4.3,20.1-0.1c6.5-4.4,9.5-10.8,7.8-18.6c-2.2-10.8-4.8-21.4-7.5-32.1c-0.7-2.7-0.6-4.6,2-6.3
	c5.5-3.7,8.8-8.7,7.2-15.7c-1.6-7.1-5.8-12-13.2-13.4c-3.6-0.7-5.1-2.6-5.9-6.1c-2.7-12.5-5.6-25-8.8-37.4
	c-2.4-9.1-11.1-14.5-20.3-13.2C353.4,67.2,346.5,75.1,346.5,85.1L346.5,85.1z M269.4,65.9c-12-0.1-20.9,10.7-18.2,22.6
	c8.5,36.5,17.1,72.9,25.8,109.3c2.5,10.2,12.2,16.1,22.1,13.8c10.2-2.3,16.2-11.9,13.8-22.5c-2.7-12-5.6-24-8.4-36
	c-5.6-24-11.3-47.9-17-71.9C285.3,71.7,278.4,66,269.4,65.9z M327.9,110.8c-12.3,0-20.7,10.7-18,23.2c2.1,9.8,4.5,19.5,6.8,29.2
	c2.7,11.7,5.3,23.4,8.3,35c2.6,10.1,12.5,15.9,22.4,13.5c9.2-2.2,15.9-11.7,13.9-20.8c-4.9-22.3-10.2-44.5-15.5-66.6
	C343.6,116,336.3,110.8,327.9,110.8L327.9,110.8z M243.3,92.8c-9.6,14.8-21,24.5-37.7,25.2v44.8c11.5-1.1,17.9,5.6,22.9,14.3
	c1.7,3,3.1,6.3,4.2,9.6c4.7,14,19.4,17.8,32.9,9.7c1-0.6,2.1-2.1,2-3c-1.9-9.5-4-19-6.2-29.2c-4.5,2-7.6,3.3-10.4,4.5
	c2.2,6.3,4.2,12,6.3,17.7c-0.5,0.3-1.1,0.5-1.6,0.8c-6.5-21.1-16.8-38.9-40.5-46.3c13.8-2.6,23.9-9.3,32.2-18.9
	c1.1-1.3,2.3-3.3,2.1-4.7C247.6,109.6,245.6,102,243.3,92.8L243.3,92.8z M315.1,65.9c-10.1,0.1-18.3,8.4-18.3,18.5
	c0,10.4,8.4,18.7,18.8,18.5c10.2-0.1,18.3-8.3,18.3-18.5C333.9,74.1,325.5,65.8,315.1,65.9z M107.8,140.3c1.4,6.1,2.6,12,4.1,18
	c0.3,1.1,1.8,2,2.8,2.9c0.3-1.3,1.2-2.7,0.9-3.8c-3.3-11.2-3.6-22.2,0.4-33.3c0.3-0.9-0.8-2.4-1.3-3.7c-0.9,0.8-2.5,1.4-2.7,2.3
	C110.4,128.4,109.2,134.2,107.8,140.3z M91.4,140.3c1.4,6.2,2.8,12.3,4.3,18.4c0.3,1,1.7,1.6,2.6,2.4c0.4-1.1,1.3-2.4,1-3.3
	c-3.4-11.3-3.9-22.5,0.2-33.7c0.3-1-0.8-2.5-1.3-3.7c-0.9,0.8-2.4,1.4-2.6,2.4C94.1,128.5,92.9,134.3,91.4,140.3z M106.4,162.2
	c0.9-1.9,1.3-2.3,1.3-2.8c0-1-0.1-2-0.4-2.9c-3.2-10.7-3.4-21.2,0.3-31.9c0.4-1.2-0.6-2.8-1-4.3c-1.1,1-2.7,1.9-3.1,3.1
	c-4.2,11.3-4.1,22.8,0,34.1C104,159,105.1,160.2,106.4,162.2L106.4,162.2z M84.2,140.4c0.9,3.9,1.7,7.9,2.8,11.8
	c0.2,0.8,1.6,1.2,2.5,1.8c0.4-1,1.4-2.1,1.1-2.9c-1.9-7.1-2-14,0.3-21c0.2-0.7-0.8-1.9-1.3-2.8c-0.9,0.5-2.4,0.9-2.6,1.7
	C86,132.7,85.2,136.4,84.2,140.4z"/>
<path d="M201,139.6c-0.8,13.9-1.7,28.2-2.3,42.5c-0.2,3.9-1.7,5.1-5.5,5.1c-11.8-0.2-23.6-0.3-35.5,0c-8.7,0.2-15.9-3.1-22.2-8.7
	c-24.4-21.6-22.1-61.4,5.1-79.6c4.7-3.1,11-4.9,16.7-5.3c12.1-0.8,24.3-0.1,36.4-0.4c4-0.1,5.1,1.3,5.3,5.1
	C199.5,112,200.3,125.6,201,139.6L201,139.6z M346.5,85.1c0-10,6.9-17.9,16-19.1c9.2-1.2,17.9,4.2,20.3,13.2
	c3.2,12.4,6.1,24.9,8.8,37.4c0.8,3.6,2.2,5.4,5.9,6.1c7.3,1.4,11.6,6.2,13.2,13.4c1.6,7-1.7,12-7.2,15.7c-2.6,1.8-2.7,3.6-2,6.3
	c2.6,10.7,5.2,21.3,7.5,32.1c1.6,7.8-1.3,14.2-7.8,18.6c-6.5,4.4-13.8,4.8-20.1,0.1c-3.5-2.6-6.9-6.8-7.9-10.9
	c-9-36.4-17.5-72.9-26.1-109.3C346.6,87.3,346.6,85.8,346.5,85.1L346.5,85.1z M269.4,65.9c9,0.1,15.9,5.8,18.2,15.4
	c5.7,24,11.3,47.9,17,71.9c2.8,12,5.7,24,8.4,36c2.4,10.6-3.7,20.2-13.8,22.5c-9.9,2.2-19.7-3.6-22.1-13.8
	c-8.7-36.4-17.4-72.8-25.8-109.3C248.5,76.6,257.4,65.8,269.4,65.9z M327.9,110.8c8.4,0,15.7,5.2,17.7,13.5
	c5.4,22.2,10.6,44.4,15.5,66.6c2,9.1-4.6,18.6-13.9,20.8c-9.8,2.4-19.7-3.4-22.4-13.5c-3-11.6-5.6-23.3-8.3-35
	c-2.3-9.7-4.7-19.4-6.8-29.2C307.2,121.5,315.6,110.8,327.9,110.8L327.9,110.8z"/>
<path d="M107.8,140.3c1.4-6.1,2.7-11.9,4.2-17.6c0.3-0.9,1.8-1.5,2.7-2.3c0.5,1.2,1.6,2.7,1.3,3.7c-4,11.1-3.7,22.2-0.4,33.3
	c0.3,1.1-0.6,2.5-0.9,3.8c-1-1-2.5-1.8-2.8-2.9C110.4,152.3,109.1,146.4,107.8,140.3z M91.4,140.3c1.4-6,2.7-11.8,4.2-17.5
	c0.3-1,1.7-1.6,2.6-2.4c0.5,1.3,1.7,2.8,1.3,3.7c-4.1,11.3-3.7,22.4-0.2,33.7c0.3,0.9-0.7,2.2-1,3.3c-0.9-0.8-2.3-1.5-2.6-2.4
	C94.2,152.7,92.9,146.5,91.4,140.3L91.4,140.3z"/>
<path d="M106.4,162.2c-1.3-2.1-2.4-3.2-2.9-4.6c-4.1-11.4-4.2-22.8,0-34.1c0.5-1.2,2.1-2.1,3.1-3.1c0.4,1.4,1.4,3.1,1,4.3
	c-3.8,10.6-3.5,21.2-0.3,31.9c0.3,0.9,0.4,2,0.4,2.9C107.7,159.9,107.3,160.3,106.4,162.2L106.4,162.2z M84.2,140.4
	c1-4.1,1.8-7.8,2.9-11.4c0.2-0.7,1.7-1.1,2.6-1.7c0.5,1,1.5,2.1,1.3,2.8c-2.4,7-2.2,14-0.3,21c0.2,0.8-0.7,1.9-1.1,2.9
	c-0.9-0.6-2.3-1.1-2.5-1.8C85.9,148.3,85.1,144.3,84.2,140.4z"/>
</svg>
